<svg width="35" height="33" viewBox="0 0 35 33" fill="none" xmlns="http://www.w3.org/2000/svg">
<path d="M33.9424 14.5271L28.7104 9.29511V3.25132C28.7104 2.15852 27.8249 1.2729 26.7305 1.2729C25.6386 1.2729 24.753 2.15852 24.753 3.25132V5.33777L20.8574 1.44202C18.9314 -0.48296 15.5827 -0.479546 13.661 1.44551L0.579188 14.5271C-0.193063 15.3009 -0.193063 16.5529 0.579188 17.3255C1.35179 18.0991 2.60626 18.0991 3.37858 17.3255L16.4592 4.24357C16.8853 3.81968 17.6364 3.81968 18.0603 4.24232L31.1431 17.3255C31.531 17.7123 32.0368 17.9047 32.5424 17.9047C33.0491 17.9047 33.5557 17.7121 33.9425 17.3255C34.715 16.553 34.715 15.3009 33.9424 14.5271Z" fill="currentColor"/>
<path d="M17.9481 7.99912C17.5681 7.61927 16.9527 7.61927 16.5737 7.99912L5.06689 19.5025C4.88522 19.6841 4.78223 19.9321 4.78223 20.1908V28.581C4.78223 30.5498 6.37857 32.1461 8.34732 32.1461H14.0444V23.3232H20.4762V32.1461H26.1733C28.142 32.1461 29.7383 30.5498 29.7383 28.581V20.1908C29.7383 19.9321 29.6363 19.6841 29.4537 19.5025L17.9481 7.99912Z" fill="currentColor"/>
</svg>
