<svg width="48" height="48" viewBox="0 0 48 48" fill="none" xmlns="http://www.w3.org/2000/svg">
<g clip-path="url(#clip0_413_661)">
<path d="M39.9989 41.6711C32.0241 48.6346 20.602 49.531 11.9377 44.4443C9.84635 43.2186 7.90816 41.6405 6.22291 39.71C5.24998 38.5991 4.39966 37.4117 3.66419 36.1707C1.41963 32.348 0.331758 28.0273 0.354726 23.7144C0.400664 17.0036 3.16619 10.3312 8.51341 5.65813C13.0102 1.72813 18.5489 -0.102716 24.0647 0.00444028C28.3394 0.081034 32.5987 1.31441 36.3524 3.63566C38.4208 4.90728 40.3283 6.51603 42.006 8.43125C42.9176 9.47319 43.7297 10.5687 44.4268 11.7101C50.4021 21.3549 48.8547 33.9261 39.9989 41.6711Z" fill="#F4F4F5"/>
<path d="M10.0969 8.36667C19.4639 0.177604 33.4235 1.41276 41.3921 10.5277C49.3606 19.6426 48.4597 33.3445 39.0926 41.5335C29.7255 49.7226 15.4932 49.2508 7.5246 40.1359C-0.443965 31.0211 0.729785 16.5557 10.0969 8.36667Z" fill="#EDEDEC"/>
<path d="M22.8777 13.2647C21.1977 16.7588 16.9685 18.0779 13.4744 16.3979C9.98037 14.7179 8.48374 10.6457 10.1637 7.15166C11.8437 3.6576 16.0544 2.08485 19.5485 3.76485C23.0426 5.44485 24.5577 9.77066 22.8777 13.2647Z" fill="#D8D8D8"/>
<path opacity="0.06" d="M12.0081 9.15473C13.6881 5.66066 17.8989 4.08791 21.393 5.76791C21.7799 5.95391 22.1424 6.17254 22.4792 6.41873C21.7915 5.30226 20.7964 4.36476 19.5486 3.76485C16.0545 2.08485 11.8437 3.6576 10.1637 7.15166C8.68199 10.2334 9.6718 13.7646 12.3233 15.7078C11.1529 13.7898 10.9491 11.3575 12.0081 9.15473Z" fill="#040000"/>
<path d="M20.3551 20.4719C20.2454 19.9345 20.6092 19.424 21.1466 19.3143C21.684 19.2046 22.2011 19.5355 22.3107 20.0728C22.4204 20.6103 22.0805 21.1478 21.543 21.2574C21.0057 21.3671 20.4648 21.0093 20.3551 20.4719Z" fill="#D8D8D8"/>
<path opacity="0.5" d="M34.0454 9.08862C33.9357 8.55115 34.2995 8.04068 34.8369 7.93099C35.3742 7.82131 35.8914 8.15215 36.0011 8.68952C36.1107 9.22699 35.7708 9.76446 35.2333 9.87415C34.6959 9.98374 34.155 9.62599 34.0454 9.08862Z" fill="white"/>
<path d="M26.508 37.349C27.3228 36.6367 28.5529 36.7625 29.2653 37.5773C29.9776 38.3921 29.9146 39.6014 29.0998 40.3138C28.285 41.0261 27.0318 40.9674 26.3194 40.1526C25.6071 39.3378 25.6932 38.0613 26.508 37.349Z" fill="#D8D8D8"/>
<path opacity="0.5" d="M5.46816 20.7151C5.35847 20.1776 5.72222 19.6671 6.2596 19.5575C6.79707 19.4478 7.3141 19.7786 7.42379 20.316C7.53347 20.8534 7.19354 21.3909 6.65607 21.5006C6.1186 21.6103 5.57776 21.2526 5.46816 20.7151Z" fill="white"/>
<path d="M43.9638 26.4096C43.6145 29.8454 40.471 32.2312 37.0352 31.882C33.5993 31.5328 31.1123 28.5746 31.4615 25.1388C31.8108 21.7029 34.862 19.1102 38.2979 19.4594C41.7337 19.8087 44.3131 22.9737 43.9638 26.4096Z" fill="#D8D8D8"/>
<path d="M16.2412 31.044C17.6128 33.4185 16.6974 36.4153 14.3229 37.787C11.9484 39.1586 8.97263 38.4097 7.60098 36.0352C6.22932 33.6607 6.98917 30.5736 9.36366 29.2019C11.7381 27.8302 14.8695 28.6695 16.2412 31.044Z" fill="#D8D8D8"/>
<path opacity="0.06" d="M10.5767 30.4059C12.3077 29.406 14.4401 29.5821 16.0006 30.6703C14.5294 28.5855 11.6087 27.9049 9.36366 29.2019C6.98917 30.5735 6.22932 33.6607 7.60098 36.0351C7.97973 36.6907 8.4811 37.2217 9.05795 37.619C8.97216 37.4973 8.89032 37.3712 8.81401 37.2392C7.44235 34.8648 8.2022 31.7776 10.5767 30.4059Z" fill="#040000"/>
<path opacity="0.06" d="M32.7845 26.4462C33.1337 23.0104 36.185 20.4176 39.6208 20.7669C40.7662 20.8834 41.816 21.3129 42.6942 21.9608C41.6623 20.5983 40.0979 19.6424 38.298 19.4594C34.8622 19.1102 31.8109 21.7028 31.4617 25.1387C31.2306 27.4118 32.2413 29.4756 33.9466 30.7134C33.0728 29.5369 32.6221 28.0432 32.7845 26.4462Z" fill="#040000"/>
<path opacity="0.1" d="M23.8885 35.7851C14.0111 35.7851 5.28667 30.9041 0.00844881 23.4425C-0.244957 32.7913 5.21645 41.6613 14.44 45.6371C26.5124 50.8409 40.657 45.7809 45.8607 33.7084C47.292 30.3879 47.8911 26.8884 47.7627 23.4507C42.484 30.9075 33.7622 35.7851 23.8885 35.7851Z" fill="#040000"/>
</g>
<defs>
<clipPath id="clip0_413_661">
<rect width="48" height="48" fill="white"/>
</clipPath>
</defs>
</svg>
