<svg width="28" height="35" viewBox="0 0 28 35" fill="none" xmlns="http://www.w3.org/2000/svg">
<path d="M27 29.2026L25.1275 8.09948C25.0938 7.68187 24.7435 7.36528 24.3192 7.36528H20.372C20.3653 3.85596 17.5093 1 14 1C10.4907 1 7.63471 3.85596 7.62798 7.36528H3.68083C3.26321 7.36528 2.91295 7.68187 2.87254 8.09948L1 29.2026C1 29.2295 1 29.2497 1 29.2767C1 31.6275 3.16218 33.5404 5.81606 33.5404H22.1839C24.8378 33.5404 27 31.6275 27 29.2767C27 29.2497 27 29.2295 27 29.2026ZM14 2.61658C16.6202 2.61658 18.7487 4.74508 18.7554 7.36528H9.24456C9.25129 4.74508 11.3798 2.61658 14 2.61658ZM22.1839 31.9171H5.81606C4.06477 31.9171 2.63679 30.7518 2.61658 29.3036L4.42176 8.98186H7.62798V11.8176C7.62798 12.2622 7.99171 12.6259 8.43627 12.6259C8.88083 12.6259 9.24456 12.2622 9.24456 11.8176V8.98186H18.7554V11.8176C18.7554 12.2622 19.1192 12.6259 19.5637 12.6259C20.0083 12.6259 20.372 12.2622 20.372 11.8176V8.98186H23.5782L25.3834 29.3104C25.3632 30.7518 23.9352 31.9171 22.1839 31.9171Z" fill="currentColor" stroke="currentColor" stroke-width="1.856"/>
</svg>
