<svg width="40" height="30" viewBox="0 0 40 30" fill="none" xmlns="http://www.w3.org/2000/svg">
    <path d="M12.8806 0.177326C11.3893 0.490699 10.1755 1.15226 9.0658 2.23166C8.28551 3.01509 7.85201 3.69407 6.70759 6.00955C5.9273 7.57641 5.26838 8.88213 5.2337 8.89954C5.19902 8.93436 4.71351 8.79509 4.15864 8.58617C3.58642 8.35985 2.70209 8.18575 2.07786 8.18575C1.17619 8.15093 0.950773 8.22057 0.569298 8.56876C-0.00291585 9.10846 -0.158974 9.96153 0.170482 10.6231C0.482599 11.215 0.968113 11.4762 1.97382 11.6154C3.01421 11.7721 3.6211 12.0855 3.51706 12.3989C3.46504 12.5556 3.13559 13.4957 2.77145 14.5054L2.12988 16.3335L2.06052 21.4519C1.99116 27.3886 2.04318 27.7716 3.18761 28.8858C4.15864 29.8433 4.86957 30 8.06009 30C10.557 30 10.6957 29.9826 11.5801 29.5125C12.7939 28.8858 13.4007 27.9108 13.5915 26.344L13.7302 25.2124H20.0592H26.3883L26.4923 26.2569C26.6657 28.0501 27.5674 29.3036 29.0586 29.8085C29.4054 29.913 30.7926 30 32.3705 30C35.0235 30 35.1275 29.9826 36.0292 29.5125C36.7054 29.1643 37.1043 28.7987 37.4857 28.172L38.0059 27.3363L38.0579 22.6357C38.11 17.5173 37.9886 16.316 37.1216 14.018C36.4453 12.2248 36.4453 12.1726 36.9829 11.9114C37.2603 11.7895 37.8499 11.6503 38.3007 11.598C39.4451 11.4588 40 10.9017 40 9.87448C40 9.33478 39.8786 8.98659 39.5838 8.6384C39.185 8.18575 39.081 8.15093 37.9539 8.16834C37.1563 8.18575 36.48 8.32503 35.9251 8.56876C35.4743 8.76027 35.0235 8.93436 34.9541 8.93436C34.8674 8.93436 34.2085 7.7331 33.4802 6.27069C32.7693 4.82569 31.9717 3.34588 31.7289 3.01509C30.8793 1.83124 29.5788 0.90853 28.0529 0.368832C27.1685 0.0728682 26.527 0.038049 20.5101 0.00322977C15.863 -0.0141798 13.6262 0.038049 12.8806 0.177326ZM27.1859 3.72889C28.4517 4.32081 29.0239 5.0172 30.2897 7.68087C30.966 9.07364 31.4515 10.2749 31.3821 10.3271C31.2087 10.5012 25.3825 10.9887 22.0533 11.128C18.3599 11.2847 8.84038 10.6405 8.66698 10.2227C8.6323 10.1182 9.13516 8.93436 9.79407 7.59382C11.32 4.54714 11.9095 3.95521 13.9036 3.46774C14.0943 3.43292 17.0248 3.39811 20.406 3.41551C25.66 3.45033 26.6484 3.48515 27.1859 3.72889ZM9.13516 13.9832C14.9093 14.6099 21.1863 14.8188 24.6369 14.5054C25.6947 14.4184 27.6541 14.2617 28.9892 14.1572C30.3244 14.0528 31.833 13.9135 32.3358 13.8613L33.2375 13.7742L33.671 14.7666C34.5206 16.6816 34.642 17.6218 34.59 22.2005L34.538 26.431H32.2838H30.0296L29.9429 24.5682C29.8562 22.8098 29.8215 22.6706 29.3707 22.2179L28.9025 21.7304H20.0419H11.1813L10.6784 22.3049C10.1929 22.8446 10.1755 22.9491 10.1755 24.4812C10.1755 25.3516 10.1062 26.1873 10.0368 26.3092C9.91545 26.4658 9.34324 26.5181 7.73063 26.4833L5.5805 26.431L5.52848 22.2179C5.47646 17.6566 5.61518 16.4553 6.39547 14.7318C6.84631 13.6872 6.69025 13.7394 9.13516 13.9832Z" fill="currentColor"/>
</svg>
