<svg width="41" height="33" viewBox="0 0 41 33" fill="none" xmlns="http://www.w3.org/2000/svg">
    <path d="M22.8413 14.1704C21.9192 14.3641 18.7992 14.6299 18.113 15.2974C17.6306 15.7818 19.732 16.3448 19.0244 17.7766C18.5419 18.7454 18.1345 19.5528 18.113 19.5635C18.0916 19.585 17.7914 19.4989 17.4483 19.3698C17.0945 19.2298 16.5477 19.1222 16.1617 19.1222C15.6042 19.1006 15.4648 19.1437 15.2289 19.359C14.8751 19.6927 14.7786 20.2202 14.9823 20.6292C15.1753 20.9952 15.4755 21.1567 16.0974 21.2428C16.7407 21.3397 17.1159 21.5335 17.0516 21.7273C17.0194 21.8242 16.8157 22.4054 16.5906 23.0298L16.1939 24.1601L16.151 27.325C16.1081 30.9958 16.1402 31.2326 16.8479 31.9215C17.4483 32.5136 17.8879 32.6105 19.8607 32.6105C21.4046 32.6105 21.4903 32.5997 22.0372 32.309C22.7877 31.9215 23.1629 31.3187 23.2809 30.3499L23.3666 29.6502H31.1934L31.2577 30.296C31.365 31.4048 31.9225 32.1799 32.8446 32.492C33.059 32.5567 33.9167 32.6105 34.8924 32.6105C36.5328 32.6105 36.5971 32.5997 37.1546 32.309C37.5728 32.0937 37.8194 31.8677 38.0552 31.4802L38.3769 30.9634L38.409 28.0569C38.4413 24.8921 38.3662 24.1493 37.8301 22.7284C37.4119 21.6196 37.4119 21.5873 37.7443 21.4258C37.9159 21.3504 38.2804 21.2644 38.5592 21.232C39.2668 21.146 39.6099 20.8015 39.6099 20.1663C39.6099 19.8326 39.5348 19.6173 39.3525 19.402C39.106 19.1222 39.0417 19.1006 38.3447 19.1114C37.8516 19.1222 37.4334 19.2083 37.0903 19.359C36.8115 19.4774 36.5328 19.585 36.4899 19.585C36.4363 19.585 36.0289 18.8423 35.5785 17.938C35.139 17.0446 34.6458 16.1296 34.4957 15.925C33.9703 15.193 33.1662 14.6225 32.2227 14.2888C31.6759 14.1058 31.2792 14.0842 27.5588 14.0627C24.6854 14.0519 23.3023 14.0842 22.8413 14.1704ZM31.6866 16.3664C32.4693 16.7324 32.8231 17.163 33.6058 18.81C34.0239 19.6712 34.3241 20.4139 34.2812 20.4462C34.174 20.5539 30.5715 20.8553 28.513 20.9414C26.2293 21.0383 20.3431 20.64 20.2359 20.3817C20.2145 20.317 20.5254 19.585 20.9328 18.7562C21.8763 16.8723 22.2408 16.5063 23.4738 16.2049C23.5918 16.1834 25.4038 16.1618 27.4944 16.1726C30.7431 16.1941 31.3543 16.2157 31.6866 16.3664ZM20.5254 22.7069C24.0957 23.0944 27.9769 23.2235 30.1105 23.0298C30.7646 22.976 31.9761 22.8791 32.8016 22.8145C33.6272 22.7499 34.56 22.6638 34.8709 22.6315L35.4285 22.5776L35.6965 23.1913C36.2218 24.3754 36.2969 24.9567 36.2648 27.7878L36.2326 30.4037H33.4449L33.3913 29.2518C33.3377 28.1646 33.3163 28.0785 33.0375 27.7986L32.748 27.4972H21.7906L21.4796 27.8524C21.1794 28.1861 21.1687 28.2507 21.1687 29.198C21.1687 29.7362 21.1258 30.253 21.0829 30.3283C21.0079 30.4252 20.6541 30.4575 19.6569 30.436L18.3275 30.4037L18.2953 27.7986C18.2631 24.9782 18.3489 24.2354 18.8314 23.1697C19.1101 22.5238 19.0136 22.5561 20.5254 22.7069Z" fill="#2E38FF"/>
    <path d="M2.17032 33C1.72513 33 1.24283 32.8145 0.72344 32.4435C0.241147 32.0354 0 31.4047 0 30.5514C0 29.661 0.185498 28.6223 0.556493 27.4351C0.964587 26.2479 1.46543 25.0236 2.05902 23.7622C2.68971 22.5008 3.3204 21.3137 3.9511 20.2007C4.58179 19.0506 5.13828 18.0675 5.62057 17.2513C5.47218 17.1029 5.30523 16.9359 5.11973 16.7504C4.97133 16.5649 4.89713 16.3423 4.89713 16.0826C4.89713 15.7116 5.08263 15.4148 5.45363 15.1922C5.82462 14.9325 6.25126 14.747 6.73356 14.6358C7.21585 14.4874 7.6054 14.3946 7.90219 14.3575C8.97808 12.7251 10.0169 11.0556 11.0185 9.34907C12.0202 7.6054 13.1518 5.99157 14.4132 4.50759C13.7083 3.9511 13.3558 3.4317 13.3558 2.94941C13.3558 2.35582 13.7825 1.87352 14.6358 1.50253C15.5261 1.13154 16.5835 0.853289 17.8078 0.667792C19.0691 0.445194 20.2378 0.315345 21.3137 0.278246C22.3524 0.241147 23.5767 0.204048 24.9865 0.166949C26.3963 0.129848 27.8432 0.111297 29.3272 0.111297C30.8482 0.074198 32.3137 0.0556485 33.7234 0.0556485C35.1332 0.0185495 36.3575 0 37.3963 0C38.1383 0 38.7504 0.111298 39.2327 0.333894C39.7521 0.556493 40.0118 0.816189 40.0118 1.11298C40.0118 1.29848 39.8078 1.48398 39.3997 1.66948C38.9916 1.81787 38.2867 1.89207 37.285 1.89207C35.3929 1.89207 33.5008 1.96627 31.6088 2.11467C29.7167 2.22597 27.8246 2.35582 25.9325 2.50422C23.6695 2.65261 21.796 3.02361 20.312 3.6172C18.8651 4.21079 17.6408 5.00843 16.6391 6.01012C15.6745 7.0118 14.747 8.21754 13.8567 9.62732C13.0034 11.0371 12.0017 12.6324 10.8516 14.4132C11.2968 14.5616 12.0017 14.6729 12.9663 14.747C13.968 14.8212 14.9696 14.8769 15.9713 14.914C16.973 14.914 20.006 14.5801 20.5254 14.5801C22.2691 14.5801 23.9942 14.5245 25.7008 14.4132C27.4445 14.3019 26.8971 14.5801 28.6037 14.5801C29.828 14.5801 30.4401 14.71 30.4401 14.9696C30.4401 15.118 30.2175 15.3035 29.7723 15.5261C29.3643 15.7487 28.9005 15.9528 28.3811 16.1383C27.8617 16.2867 23.7251 16.1012 23.4283 16.1383C20.5346 16.5093 21.1653 17.14 17.8634 17.4739C14.5987 17.8078 11.4823 17.9747 8.51433 17.9747C8.25464 17.9747 7.86509 18.3457 7.3457 19.0877C6.82631 19.7926 6.25127 20.7015 5.62057 21.8145C4.98988 22.8904 4.39629 24.0219 3.8398 25.2091C3.28331 26.3592 2.81956 27.4165 2.44857 28.3811C2.07757 29.3086 1.89207 29.9764 1.89207 30.3845C1.89207 30.5329 1.89207 30.7369 1.89207 30.9966C1.92917 31.2192 2.02192 31.3862 2.17032 31.4975C2.65261 31.8685 2.89376 32.2024 2.89376 32.4992C2.89376 32.8331 2.65261 33 2.17032 33Z" fill="#2E38FF"/>
</svg>
