<svg width="32" height="32" viewBox="0 0 32 32" fill="none" xmlns="http://www.w3.org/2000/svg">
<path fill-rule="evenodd" clip-rule="evenodd" d="M2.34315 29.6568C4.68629 32 8.45752 32 16 32C23.5424 32 27.3138 32 29.6568 29.6568C32 27.3138 32 23.5424 32 16C32 8.45752 32 4.68629 29.6568 2.34315C27.3138 -1.90735e-07 23.5424 0 16 0C8.45752 0 4.68629 -1.90735e-07 2.34315 2.34315C-1.90735e-07 4.68629 0 8.45752 0 16C0 23.5424 -1.90735e-07 27.3138 2.34315 29.6568ZM26.8 22.4C26.8 23.0627 26.2627 23.6 25.6 23.6H6.4C5.73726 23.6 5.2 23.0627 5.2 22.4C5.2 21.7373 5.73726 21.2 6.4 21.2H25.6C26.2627 21.2 26.8 21.7373 26.8 22.4ZM25.6 17.2C26.2627 17.2 26.8 16.6627 26.8 16C26.8 15.3373 26.2627 14.8 25.6 14.8H6.4C5.73726 14.8 5.2 15.3373 5.2 16C5.2 16.6627 5.73726 17.2 6.4 17.2H25.6ZM26.8 9.6C26.8 10.2627 26.2627 10.8 25.6 10.8H6.4C5.73726 10.8 5.2 10.2627 5.2 9.6C5.2 8.93726 5.73726 8.4 6.4 8.4H25.6C26.2627 8.4 26.8 8.93726 26.8 9.6Z" fill="currentColor"/>
</svg>
