<svg width="23" height="25" viewBox="0 0 23 25" fill="none" xmlns="http://www.w3.org/2000/svg">
<path fill-rule="evenodd" clip-rule="evenodd" d="M13.6533 0.1903C13.205 5.58794e-08 12.6367 0 11.5 0C10.3633 0 9.79496 5.58794e-08 9.3467 0.1903C8.74895 0.444038 8.27405 0.930725 8.02646 1.54329C7.91343 1.82293 7.8692 2.14812 7.85189 2.62249C7.82645 3.3196 7.4776 3.96486 6.88809 4.31366C6.29858 4.66245 5.57887 4.64942 4.97706 4.32345C4.56753 4.10162 4.2706 3.97827 3.97777 3.93877C3.33631 3.85222 2.68758 4.03036 2.17429 4.434C1.78932 4.73673 1.50515 5.24112 0.936823 6.24991C0.368493 7.25871 0.0843345 7.7631 0.0209999 8.25614C-0.0634585 8.9135 0.110373 9.57832 0.504241 10.1044C0.684016 10.3445 0.936665 10.5462 1.32879 10.7987C1.90525 11.17 2.27617 11.8024 2.27614 12.5C2.2761 13.1976 1.90519 13.8299 1.32879 14.201C0.936605 14.4536 0.683908 14.6555 0.504121 14.8956C0.110252 15.4216 -0.0635673 16.0864 0.0208789 16.7437C0.0842136 17.2367 0.368384 17.7412 0.936701 18.75C1.50503 19.7587 1.7892 20.2632 2.17417 20.5659C2.68746 20.9695 3.33619 21.1476 3.97765 21.0611C4.27046 21.0216 4.56737 20.8983 4.97687 20.6765C5.57873 20.3505 6.29848 20.3375 6.88803 20.6862C7.47758 21.0351 7.82644 21.6804 7.85189 22.3776C7.8692 22.8519 7.91343 23.1771 8.02646 23.4567C8.27405 24.0692 8.74895 24.556 9.3467 24.8097C9.79496 25 10.3633 25 11.5 25C12.6367 25 13.205 25 13.6533 24.8097C14.251 24.556 14.7259 24.0692 14.9735 23.4567C15.0865 23.1771 15.1308 22.8519 15.1481 22.3775C15.1736 21.6804 15.5223 21.0351 16.1118 20.6862C16.7014 20.3374 17.4211 20.3505 18.023 20.6765C18.4325 20.8983 18.7294 21.0215 19.0222 21.061C19.6636 21.1476 20.3124 20.9695 20.8256 20.5659C21.2107 20.2631 21.4948 19.7588 22.0631 18.7499C22.6315 17.7411 22.9156 17.2367 22.979 16.7437C23.0634 16.0864 22.8896 15.4215 22.4958 14.8955C22.3159 14.6554 22.0633 14.4535 21.6711 14.201C21.0947 13.8299 20.7238 13.1975 20.7238 12.4999C20.7238 11.8022 21.0947 11.1701 21.6711 10.799C22.0634 10.5464 22.316 10.3446 22.4959 10.1044C22.8897 9.57841 23.0635 8.91359 22.9792 8.25621C22.9157 7.76319 22.6316 7.25879 22.0633 6.25C21.4949 5.24121 21.2108 4.73681 20.8257 4.43409C20.3125 4.03045 19.6638 3.85231 19.0223 3.93886C18.7295 3.97836 18.4325 4.1017 18.0231 4.3235C17.4213 4.64949 16.7015 4.66252 16.112 4.3137C15.5224 3.96489 15.1736 3.31957 15.148 2.62242C15.1307 2.1481 15.0865 1.82291 14.9735 1.54329C14.7259 0.930725 14.251 0.444038 13.6533 0.1903ZM11.5 16.25C13.521 16.25 15.1592 14.5711 15.1592 12.5C15.1592 10.4289 13.521 8.75 11.5 8.75C9.47901 8.75 7.84076 10.4289 7.84076 12.5C7.84076 14.5711 9.47901 16.25 11.5 16.25Z" fill="currentColor"/>
</svg>
